<svg xmlns="http://www.w3.org/2000/svg" width="89" height="30" fill="none" viewBox="0 0 89 30" class="text-[var(--text-12)]"><mask id="mask0_723_7921" width="89" height="30" x="0" y="0" maskUnits="userSpaceOnUse" style="mask-type:luminance"><path fill="#fff" d="M89 .805H0v28.391h89z"></path></mask><g mask="url(#mask0_723_7921)"><path fill="currentColor" d="M50.888 1.48h-5.671l-9.52 10.994V1.48H31.35v26.541h4.348v-11.08l9.883 11.08h5.786L39.53 14.754z"></path><path fill="currentColor" d="M64.194 11.302a5.9 5.9 0 0 0-2.02-1.811 7.4 7.4 0 0 0-3.564-.881 9 9 0 0 0-3.397.651 8.2 8.2 0 0 0-2.82 1.91 8.9 8.9 0 0 0-1.889 3.037c-.45 1.184-.68 2.554-.68 4.073v.578c0 1.54.23 2.921.68 4.103A8.8 8.8 0 0 0 52.393 26a8 8 0 0 0 2.824 1.887 9.4 9.4 0 0 0 3.456.63 7 7 0 0 0 3.472-.927 6.1 6.1 0 0 0 2.047-1.918v2.342h3.84V9.119h-3.837zm0 7.483a7.5 7.5 0 0 1-.399 2.508A6 6 0 0 1 62.71 23.2a4.7 4.7 0 0 1-1.638 1.196 5.15 5.15 0 0 1-2.112.425c-1.537 0-2.803-.52-3.764-1.543-.974-1.048-1.469-2.534-1.469-4.419v-.577a7.4 7.4 0 0 1 .41-2.477 5.5 5.5 0 0 1 1.093-1.87 4.9 4.9 0 0 1 1.64-1.19 5 5 0 0 1 2.09-.423 4.89 4.89 0 0 1 3.729 1.667c.485.553.86 1.195 1.102 1.89.272.798.407 1.636.398 2.479zM77.73 9.123V6.689c0-.523.169-.56.45-.56h2.906V2.495h-3.911c-.959 0-1.756.321-2.365.953q-.917.945-.919 2.377v3.297h-3.93v3.631h3.93v15.268h3.84V12.754h6.335v15.268h3.84v-18.9H77.729"></path><path fill="currentColor" d="M85.944 7.115a2.46 2.46 0 0 0 1.798-.747 2.47 2.47 0 0 0 .745-1.802 2.48 2.48 0 0 0-.745-1.804 2.46 2.46 0 0 0-1.798-.746 2.45 2.45 0 0 0-1.798.746 2.46 2.46 0 0 0-.745 1.804 2.47 2.47 0 0 0 .745 1.802 2.46 2.46 0 0 0 1.798.747"></path><path fill="url(#paint0_linear_723_7921)" d="M23.81 28.52h-6.548a1.37 1.37 0 0 1-1.134-.603L0 3.967v-1.3A1.187 1.187 0 0 1 1.184 1.48h5.062a1.37 1.37 0 0 1 1.134.604l17.033 25.29a.731.731 0 0 1-.604 1.146"></path><path fill="url(#paint1_linear_723_7921)" d="M6.244 1.48h-5.06C.53 1.48 0 2.012 0 2.667v24.661c0 .655.53 1.186 1.184 1.186h5.06c.654 0 1.185-.53 1.185-1.186V2.667c0-.655-.53-1.187-1.185-1.187"></path><path fill="url(#paint2_linear_723_7921)" d="M24.413 2.618 7.373 27.911a1.37 1.37 0 0 1-1.133.603H1.184A1.184 1.184 0 0 1 0 27.328v-1.305l16.123-23.94a1.37 1.37 0 0 1 1.133-.603h6.552a.727.727 0 0 1 .605 1.138"></path></g><defs><linearGradient id="paint0_linear_723_7921" x1="20.555" x2="3.444" y1="28.651" y2="2.13" gradientUnits="userSpaceOnUse"><stop offset="0.15" stop-color="#0C6070"></stop><stop offset="0.51" stop-color="#096B6E"></stop><stop offset="0.99" stop-color="#07756D"></stop></linearGradient><linearGradient id="paint1_linear_723_7921" x1="3.715" x2="3.715" y1="1.617" y2="27.733" gradientUnits="userSpaceOnUse"><stop offset="0.14" stop-color="#07756D"></stop><stop offset="0.35" stop-color="#058977"></stop><stop offset="0.76" stop-color="#01BB8F"></stop><stop offset="0.85" stop-color="#00C795"></stop></linearGradient><linearGradient id="paint2_linear_723_7921" x1="3.14" x2="20.393" y1="28.148" y2="1.912" gradientUnits="userSpaceOnUse"><stop stop-color="#00C795"></stop><stop offset="0.19" stop-color="#02CB94"></stop><stop offset="0.39" stop-color="#09D892"></stop><stop offset="0.59" stop-color="#13EC8F"></stop><stop offset="0.66" stop-color="#18F58E"></stop></linearGradient></defs></svg>